# xmcd
# Track frame offsets:
# 150
# 22875
# 40610
# 56275
# 68912
# 91707
# 106122
# 122885
# 143642
# 154167
# 183040
# 204407
# 227582
# 247084
#
# Disc length: 3504 seconds
# Revision: 0
# Processed by: cddbd v1.5.2PL0 Copyright (c) Steve Scherf et al.
# Submitted via: VisiTrax 2.10.0.248 - For more info visit www.synapsa.com
#
DISCID=a70dae0e
DTITLE=Various Artist - House Rockin' and Blues Shoutin' (Live Blues From Th
DTITLE=e Rhythm Room In Phoenix)
DYEAR=2007
DGENRE=Blues
TTITLE0=Fabulous Thunderbirds - Goin' Away Baby
TTITLE1=Mannish Boys - Lonesome Bedroom
TTITLE2=Long John Hunter - Long John's Country Blues
TTITLE3=Floyd Dixon - Please Don't Go
TTITLE4=Big Pete Pearson - That's Alright
TTITLE5=Henry Gray w/Kid Ramos - Henry's Houserocker
TTITLE6=Fabulous Thunderbirds - Rich Woman
TTITLE7=Sonny Rhodes - My Bleeding Heart
TTITLE8=Paul Oscher - That's It
TTITLE9=Chief Gilliame w/Johnny Dyer and Henry Gray - Monkey Meat
TTITLE10=Robert Lockwood Jr. - C.C. Rider
TTITLE11=Fabulous Thunderbirds - Horsin' Around
TTITLE12=Louisana Red - Time Will Tell
TTITLE13=Billy Boy Arnold - Two Drinks Of Wine
EXTD=
EXTT0=
EXTT1=
EXTT2=
EXTT3=
EXTT4=
EXTT5=
EXTT6=
EXTT7=
EXTT8=
EXTT9=
EXTT10=
EXTT11=
EXTT12=
EXTT13=
PLAYORDER=
